HIERARCHY
ROOT Hips
{
	OFFSET -3.958830 18.904000 13.208200
	CHANNELS 6 Xposition Yposition Zposition Zrotation Yrotation Xrotation 
	JOINT LHipJoint
	{
		OFFSET 0.000000 0.000000 0.000000
		CHANNELS 3 Zrotation Yrotation Xrotation
		JOINT LeftUpLeg
		{
			OFFSET 1.800000 -1.400000 0.085000
			CHANNELS 3 Zrotation Yrotation Xrotation
			JOINT LeftLeg
			{
				OFFSET 2.215000 -6.000000 0.000000
				CHANNELS 3 Zrotation Yrotation Xrotation
				JOINT LeftFoot
				{
					OFFSET 2.500000 -6.900000 0.000000
					CHANNELS 3 Zrotation Yrotation Xrotation
					JOINT LeftToeBase
					{
						OFFSET 0.200000 -0.500000 1.950000
						CHANNELS 3 Zrotation Yrotation Xrotation
						End Site
						{
							OFFSET 0.000000 0.000000 0.000000
						}
					}
				}
			}
		}
	}
	JOINT RHipJoint
	{
		OFFSET 0.000000 0.000000 0.000000
		CHANNELS 3 Zrotation Yrotation Xrotation
		JOINT RightUpLeg
		{
			OFFSET -1.800000 -1.400000 0.085000
			CHANNELS 3 Zrotation Yrotation Xrotation
			JOINT RightLeg
			{
				OFFSET -2.215000 -6.000000 0.000000
				CHANNELS 3 Zrotation Yrotation Xrotation
				JOINT RightFoot
				{
					OFFSET -2.500000 -6.900000 0.000000
					CHANNELS 3 Zrotation Yrotation Xrotation
					JOINT RightToeBase
					{
						OFFSET -0.200000 -0.500000 1.950000
						CHANNELS 3 Zrotation Yrotation Xrotation
						End Site
						{
							OFFSET 0.000000 0.000000 0.000000
						}
					}
				}
			}
		}
	}
	JOINT LowerBack
	{
		OFFSET 0.000000 0.000000 0.000000
		CHANNELS 3 Zrotation Yrotation Xrotation
		JOINT Spine
		{
			OFFSET -0.087000 1.940000 -0.288900
			CHANNELS 3 Zrotation Yrotation Xrotation
			JOINT Spine1
			{
				OFFSET 0.000000 1.950000 0.060000
				CHANNELS 3 Zrotation Yrotation Xrotation
				JOINT Neck
				{
					OFFSET 0.000000 0.000000 0.000000
					CHANNELS 3 Zrotation Yrotation Xrotation
					JOINT Neck1
					{
						OFFSET 0.000000 1.600000 0.340000
						CHANNELS 3 Zrotation Yrotation Xrotation
						JOINT Head
						{
							OFFSET 0.000000 1.667000 -0.240000
							CHANNELS 3 Zrotation Yrotation Xrotation
							End Site
							{
								OFFSET 0.000000 0.000000 0.000000
							}
						}
					}
				}
				JOINT LeftShoulder
				{
					OFFSET 0.000000 0.000000 0.000000
					CHANNELS 3 Zrotation Yrotation Xrotation
					JOINT LeftArm
					{
						OFFSET 2.700000 1.550000 -0.730000
						CHANNELS 3 Zrotation Yrotation Xrotation
						JOINT LeftForeArm
						{
							OFFSET 5.450000 0.000000 0.000000
							CHANNELS 3 Zrotation Yrotation Xrotation
							JOINT LeftHand
							{
								OFFSET 3.450000 0.000000 0.000000
								CHANNELS 3 Zrotation Yrotation Xrotation
								JOINT LeftHandIndex1
								{
									OFFSET 0.750000 0.000000 0.000000
									CHANNELS 3 Zrotation Yrotation Xrotation
									End Site
									{
										OFFSET 0.000000 0.000000 0.000000
									}
								}
							}
						}
					}
				}
				JOINT RightShoulder
				{
					OFFSET 0.000000 0.000000 0.000000
					CHANNELS 3 Zrotation Yrotation Xrotation
					JOINT RightArm
					{
						OFFSET -2.700000 1.550000 -0.730000
						CHANNELS 3 Zrotation Yrotation Xrotation
						JOINT RightForeArm
						{
							OFFSET -5.450000 0.000000 0.000000
							CHANNELS 3 Zrotation Yrotation Xrotation
							JOINT RightHand
							{
								OFFSET -3.450000 0.000000 0.000000
								CHANNELS 3 Zrotation Yrotation Xrotation
								JOINT RightHandIndex1
								{
									OFFSET -0.750000 0.000000 0.000000
									CHANNELS 3 Zrotation Yrotation Xrotation
									End Site
									{
										OFFSET 0.000000 0.000000 0.000000
									}
								}
							}
						}
					}
				}
			}
		}
	}
}
MOTION
Frames: 4
Frame Time: 0.016667
1.006180 16.671370 -6.643550 -1.273737 2.032433 2.345667 -15.184578 12.445162 2.190982 7.345862 -4.986754 -16.221494 -4.194231 10.053183 40.798397 -1.170186 8.756509 1.860323 0.437050 -0.228780 0.098690 18.722362 -8.378824 5.097348 -6.490232 9.334534 -57.172730 2.642679 -13.467970 59.593160 -1.230212 -9.645087 1.508523 0.384690 1.046990 0.004760 -4.214877 -3.106973 -7.942930 16.020356 -10.186584 16.958133 -8.638474 -7.444023 2.794523 0.962269 -7.919941 -2.894435 -14.268068 9.668403 19.568958 -3.467330 3.485480 -13.958920 -25.258679 8.220366 -3.343074 -43.864832 -7.866180 2.556923 108.867905 -74.653221 -101.328820 -4.658033 0.524307 1.056490 0.583650 -0.678730 0.401800 22.915298 -7.345654 1.142504 41.358972 -9.024325 -11.024210 42.321855 69.548514 23.488479 0.804584 -1.777219 -1.087240 1.069870 0.425210 -0.612700 
1.043960 16.602760 -6.768350 -2.290761 0.495768 -1.611355 -15.187261 12.582588 2.045001 8.577520 -4.544040 -12.725247 -4.646119 10.539857 40.853708 -1.092731 8.913044 1.796023 0.389310 -0.285160 0.086010 18.707154 -8.158353 5.443352 -6.432700 10.758606 -59.125483 0.970856 -14.584578 67.956177 -1.678096 -10.971986 1.157838 0.287660 0.942270 -0.026810 -4.156633 -3.478681 -8.253488 16.059886 -12.341558 25.952320 -8.881424 -8.751157 1.439120 1.117502 -9.689659 -4.207874 -18.048124 10.799595 20.213987 -3.428950 3.571410 -20.663320 -26.564953 5.061792 -2.453968 -36.871762 -5.821731 -1.293523 119.327866 -68.268828 -108.407490 -4.417528 1.589800 1.238100 0.426380 -0.553950 0.363210 24.171439 -3.473369 2.667568 37.513326 -8.901393 -11.228674 47.857853 76.661849 30.117059 0.909882 -1.610134 -1.092260 1.114990 0.462030 -0.629800 
1.061360 16.545210 -6.879420 -2.672184 -1.863040 -4.295369 -15.234848 12.546307 1.997294 9.422066 -4.446576 -10.962260 -5.508730 11.564015 42.268175 -1.041322 9.438100 1.647407 0.335500 -0.353760 0.105100 18.690438 -7.852051 5.746544 -5.990116 12.846678 -60.942409 -1.228262 -14.613349 75.291697 -2.023761 -11.993302 0.916568 0.257830 0.944440 -0.099920 -4.051925 -3.735683 -8.458457 14.720692 -13.128571 33.131832 -8.083515 -9.239718 0.542792 0.777086 -11.017612 -5.063689 -20.992506 11.933214 19.104121 -3.813520 3.351270 -26.267120 -27.158355 2.923738 -1.979512 -31.475691 -3.722215 -3.911932 120.949059 -62.239388 -103.730682 -4.323250 1.455262 1.386720 0.343140 -0.498040 0.341710 25.748616 -0.638716 3.934094 33.316495 -8.510434 -10.102373 56.408243 84.353957 40.014450 1.083183 -1.250663 -1.198350 1.278630 0.502860 -0.654370 
1.090450 16.487060 -6.975860 -3.289352 -4.408689 -5.800305 -15.246673 12.309687 1.972736 10.422368 -4.490073 -10.883608 -6.401762 12.932856 44.696724 -0.886438 10.070731 1.412668 0.292230 -0.395200 0.097640 18.740002 -7.547160 6.062415 -5.358331 15.421968 -63.071469 -3.155662 -14.536298 81.849765 -2.312222 -12.928804 0.696825 0.227100 0.918750 -0.122010 -4.124849 -3.636946 -8.640787 14.799941 -13.714340 37.207626 -8.410758 -9.483167 0.821431 0.792788 -11.736655 -6.079322 -22.923582 13.799304 18.862438 -4.588720 4.222000 -28.064940 -26.398054 1.036975 -1.249482 -27.447526 -1.278222 -6.086000 120.147159 -57.777549 -97.327939 -4.275463 1.386535 1.419050 0.307980 -0.473660 0.310820 25.143077 1.514837 4.986328 32.030436 -6.873361 -8.223738 -117.145718 88.593575 -130.220466 1.410170 -0.551229 -1.212630 1.303520 0.531550 -0.663030 
